<?xml version="1.0" encoding="UTF-8" standalone="no"?>
<!-- Created with Inkscape (http://www.inkscape.org/) -->

<svg
   xmlns:dc="http://purl.org/dc/elements/1.1/"
   xmlns:cc="http://creativecommons.org/ns#"
   xmlns:rdf="http://www.w3.org/1999/02/22-rdf-syntax-ns#"
   xmlns:svg="http://www.w3.org/2000/svg"
   xmlns="http://www.w3.org/2000/svg"
   xmlns:sodipodi="http://sodipodi.sourceforge.net/DTD/sodipodi-0.dtd"
   xmlns:inkscape="http://www.inkscape.org/namespaces/inkscape"
   width="200"
   height="200"
   viewBox="0 0 52.916666 52.916666"
   version="1.1"
   id="svg8"
   inkscape:version="0.92.3 (d244b95, 2018-08-02)"
   sodipodi:docname="mine.svg">
  <defs
     id="defs2" />
  <sodipodi:namedview
     id="base"
     pagecolor="#ffffff"
     bordercolor="#666666"
     borderopacity="1.0"
     inkscape:pageopacity="0.0"
     inkscape:pageshadow="2"
     inkscape:zoom="2.8"
     inkscape:cx="198.90046"
     inkscape:cy="75.432978"
     inkscape:document-units="px"
     inkscape:current-layer="layer1"
     showgrid="false"
     units="px"
     inkscape:window-width="1920"
     inkscape:window-height="1056"
     inkscape:window-x="1920"
     inkscape:window-y="0"
     inkscape:window-maximized="1" />
  <metadata
     id="metadata5">
    <rdf:RDF>
      <cc:Work
         rdf:about="">
        <dc:format>image/svg+xml</dc:format>
        <dc:type
           rdf:resource="http://purl.org/dc/dcmitype/StillImage" />
        <dc:title></dc:title>
      </cc:Work>
    </rdf:RDF>
  </metadata>
  <g
     inkscape:label="Layer 1"
     inkscape:groupmode="layer"
     id="layer1"
     transform="translate(0,-244.08334)">
    <rect
       style="fill:#c8beb7;stroke-width:0.29422158"
       id="rect22"
       width="51.59375"
       height="51.59375"
       x="0.66145831"
       y="244.7448" />
    <path
       style="fill:#000000;stroke-width:0.25590163"
       id="path12"
       d="m 8.9608715,289.92523 c 0.171843,-0.17416 0.321201,-0.37785 0.453937,-0.59419 0.114872,-0.15249 0.141042,-0.35005 0.188641,-0.53866 0.07124,-0.25368 0.251252,-0.42561 0.382906,-0.6347 0.09242,-0.15972 0.1288565,-0.35161 0.2126785,-0.51695 0.05446,-0.10744 0.09359,-0.15827 0.15975,-0.25585 0.221098,-0.30466 0.375906,-0.66283 0.56346,-0.99539 0.04297,-0.0693 0.08477,-0.13964 0.128922,-0.2079 0.104862,-0.16209 0.171143,-0.24472 0.27021,-0.41037 0.11628,-0.19444 0.216473,-0.40382 0.325001,-0.60436 0.278478,-0.43579 0.508231,-0.90561 0.712953,-1.39409 0.232335,-0.50256 0.493316,-0.98631 0.747188,-1.47435 0.24441,-0.54925 0.562366,-1.04437 0.844954,-1.56606 0.280804,-0.53536 0.58416,-1.05206 0.86097,-1.59039 0.284126,-0.55743 0.58044,-1.10422 0.843519,-1.67615 0.265332,-0.55093 0.573384,-1.06849 0.838274,-1.61981 0.28726,-0.5388 0.544709,-1.09698 0.810776,-1.65033 0.04537,-0.0861 0.09018,-0.17243 0.136095,-0.25804 0.112907,-0.21049 0.173822,-0.30887 0.275617,-0.52519 0.118582,-0.25201 0.215919,-0.51879 0.322091,-0.77824 0.222061,-0.49523 0.456055,-0.98228 0.679625,-1.4765 0.205532,-0.45929 0.449116,-0.88813 0.697692,-1.3152 0.187387,-0.39264 0.331436,-0.80493 0.549512,-1.17723 0.194386,-0.30393 0.366085,-0.56711 0.469801,-0.93195 0.06694,-0.27704 0.193075,-0.51024 0.336296,-0.7384 0.113774,-0.18896 0.234858,-0.3772 0.319127,-0.58758 0.03611,-0.1926 0.132849,-0.35348 0.193333,-0.5335 0.03399,-0.18806 0.124509,-0.3486 0.178233,-0.52807 0.04582,-0.18024 0.05045,-0.36935 0.05462,-0.55607 -0.0067,-0.18039 0.03414,-0.35498 0.05721,-0.53169 0.0235,-0.20629 0.02526,-0.41477 0.0272,-0.62256 0.02395,-0.21788 -0.04085,-0.41122 -0.09254,-0.61505 -0.04924,-0.22788 -0.06326,-0.46293 -0.07197,-0.69702 0.01269,-0.17288 -0.04043,-0.31934 -0.09365,-0.47402 -0.02953,-0.14584 -0.106003,-0.26462 -0.161854,-0.39595 -0.0474,-0.13223 -0.147464,-0.20459 -0.220175,-0.3126 -0.05129,-0.15048 -0.117417,-0.27406 -0.205416,-0.39683 -0.110765,-0.10122 -0.170415,-0.25048 -0.234002,-0.39356 -0.07749,-0.11578 -0.185071,-0.1992 -0.273575,-0.30438 -0.08051,-0.17301 -0.206073,-0.30385 -0.314783,-0.45021 -0.09233,-0.16244 -0.18535,-0.32676 -0.258868,-0.5025 -0.05819,-0.13082 -0.128577,-0.24816 -0.217959,-0.35104 -0.135855,-0.10408 -0.200541,-0.29051 -0.271409,-0.45573 -0.01151,-0.0206 -0.0212,-0.0429 -0.03453,-0.062 -0.02497,-0.0358 -0.05804,-0.0628 -0.08306,-0.0985 -0.0431,-0.0614 -0.07086,-0.13317 -0.106664,-0.20036 -0.07743,-0.12781 -0.1337,-0.26308 -0.18276,-0.40906 -0.04379,-0.0873 -0.01925,-0.0439 -0.07436,-0.12949 0,0 1.072526,-0.75476 1.072526,-0.75476 v 0 c 0.06643,0.10533 0.0362,0.0511 0.09107,0.16191 0.04874,0.13674 0.09858,0.26623 0.173679,0.38646 0.06937,0.1329 0.148201,0.25008 0.2283,0.37379 0.06553,0.15606 0.124534,0.31414 0.251766,0.41373 0.09746,0.11615 0.174307,0.24944 0.238339,0.39464 0.0665,0.16465 0.153452,0.31801 0.240354,0.46827 0.108586,0.142 0.226114,0.27588 0.312186,0.43986 0.100427,0.11166 0.219846,0.20478 0.294281,0.34428 0.05956,0.1353 0.116858,0.26741 0.219182,0.3656 0.08819,0.12211 0.159285,0.24714 0.207641,0.39766 0.08204,0.11167 0.183142,0.20098 0.234181,0.34202 0.05651,0.13507 0.137403,0.25656 0.166495,0.40656 0.05697,0.16961 0.124247,0.33214 0.110385,0.52154 0.0053,0.22264 0.01364,0.44676 0.05775,0.66426 0.05255,0.21666 0.133679,0.42308 0.108843,0.65416 -0.0015,0.21252 -3.76e-4,0.42562 -0.01729,0.6374 -0.01729,0.17393 -0.06142,0.34274 -0.06483,0.51719 -0.0023,0.19796 -0.0044,0.39749 -0.03894,0.59205 -0.0207,0.0954 -0.04352,0.18506 -0.08158,0.27317 -0.02329,0.0538 -0.06038,0.0994 -0.07853,0.15596 -0.01047,0.0327 -0.0115,0.0685 -0.01724,0.10272 -0.01363,0.0588 -0.02903,0.13623 -0.05169,0.19189 -0.0484,0.11888 -0.136704,0.20843 -0.14029,0.35274 -0.02508,0.082 -0.04327,0.15285 -0.0805,0.22888 -0.117359,0.23969 0.0064,-0.0501 -0.11797,0.18473 -0.18242,0.34429 0.08987,-0.10495 -0.107928,0.2123 -0.151409,0.21019 -0.280442,0.42848 -0.359828,0.69108 -0.09208,0.38122 -0.162978,0.50002 -0.360344,0.81162 -0.03448,0.0545 -0.06554,0.11179 -0.09832,0.1677 -0.116783,0.17817 -0.219515,0.35679 -0.304862,0.55928 -0.04694,0.11142 -0.111443,0.2936 -0.152685,0.40718 -0.02957,0.071 -0.06496,0.13859 -0.09744,0.2079 -0.119198,0.2103 -0.251112,0.40945 -0.366042,0.62311 -0.131586,0.24462 -0.09468,0.19446 -0.220036,0.44757 -0.03885,0.0785 -0.08009,0.15524 -0.120132,0.23285 -0.22661,0.49171 -0.449881,0.98523 -0.683724,1.47228 -0.224589,0.53751 -0.424879,1.08905 -0.732413,1.57166 -0.13677,0.27584 -0.255102,0.56352 -0.390973,0.83948 -0.134651,0.27349 -0.290756,0.53312 -0.420852,0.81015 -0.08908,0.1862 -0.171003,0.37741 -0.266357,0.55919 -0.186682,0.35592 -0.407413,0.68783 -0.573998,1.05895 -0.08943,0.19441 -0.171694,0.3936 -0.266697,0.58426 -0.184191,0.36967 -0.398,0.7193 -0.571428,1.09693 -0.09127,0.17605 -0.177999,0.35544 -0.271537,0.52981 -0.191957,0.35785 -0.414671,0.69222 -0.588678,1.06387 -0.09548,0.17502 -0.186759,0.35326 -0.284377,0.52661 -0.192072,0.34107 -0.421555,0.65582 -0.559089,1.03648 -0.130379,0.24409 -0.244078,0.50051 -0.374561,0.744 -0.127285,0.23752 -0.280438,0.45716 -0.377327,0.71715 -0.07118,0.17111 -0.133977,0.34727 -0.210832,0.51491 -0.142839,0.31154 -0.316128,0.60482 -0.490911,0.89182 -0.112012,0.20144 -0.210366,0.41403 -0.323578,0.61412 -0.111697,0.19743 -0.14505,0.22394 -0.270124,0.41042 -0.04431,0.066 -0.08647,0.13411 -0.12971,0.20117 -0.104067,0.17751 -0.125664,0.20733 -0.217194,0.39024 -0.05786,0.11565 -0.10087,0.24161 -0.163298,0.35386 -0.05064,0.091 -0.1289,0.15812 -0.167596,0.25998 -0.111576,0.14834 -0.219961,0.29193 -0.282587,0.47944 -0.01579,0.0472 -0.02393,0.0979 -0.03988,0.14498 -0.01541,0.0456 -0.03599,0.0884 -0.05398,0.13265 -0.11806,0.23171 -0.271676,0.37234 -0.391719,0.59146 -0.05144,0.19825 -0.07345,0.41364 -0.172686,0.58801 -0.14305,0.21186 -0.273679,0.43517 -0.44091,0.62364 0,0 -1.1565285,0.55318 -1.1565285,0.55318 z"
       inkscape:connector-curvature="0" />
    <path
       style="fill:#000000;stroke-width:0.22947966"
       id="path14"
       d="m 19.72684,256.46335 c 0.204525,0.12372 0.431123,0.21215 0.632711,0.33972 0.09331,0.0732 0.20813,0.11589 0.308745,0.17621 0.04988,0.0299 0.09243,0.0697 0.139269,0.10376 0.106534,0.0878 0.196589,0.19162 0.300482,0.28166 0.100328,0.0632 0.199955,0.13036 0.286082,0.21083 0.08421,0.0845 0.192884,0.13672 0.273676,0.2238 0.134047,0.0843 0.257437,0.17566 0.367883,0.28747 0.107643,0.1062 0.201305,0.2205 0.307864,0.32835 0.143102,0.11385 0.256781,0.25564 0.369428,0.39601 0.134787,0.14357 0.293595,0.26122 0.416593,0.41423 0.150836,0.1941 0.25914,0.41348 0.395329,0.6158 0.136713,0.19811 0.230232,0.41678 0.35652,0.62078 0.181824,0.29016 0.389761,0.56357 0.610557,0.82771 0.215436,0.31838 0.468315,0.60966 0.716536,0.90475 0.295376,0.31384 0.523781,0.67483 0.772231,1.02143 0.162044,0.219 0.356466,0.41487 0.493523,0.65044 0.0213,0.0366 0.144887,0.28547 0.164959,0.32565 0.107384,0.23013 0.281803,0.42098 0.420109,0.63306 0.04502,0.069 0.142574,0.2401 0.185324,0.31415 0.02985,0.0484 0.05657,0.0985 0.08954,0.14496 0.06497,0.0915 0.14512,0.17244 0.21346,0.26167 0.103402,0.13504 0.20336,0.27361 0.30283,0.41135 0.131489,0.22204 0.291728,0.43488 0.471586,0.62389 0.165151,0.18459 0.264061,0.40692 0.423116,0.59621 0.161149,0.14411 0.322535,0.27481 0.425654,0.46366 0.08405,0.13428 0.178645,0.25622 0.303326,0.35863 0.114366,0.0821 0.181578,0.18704 0.251376,0.30282 0.07046,0.0859 0.159265,0.15443 0.236526,0.23414 0.06571,0.10346 0.123994,0.21016 0.191854,0.3127 0.06575,0.0935 0.09911,0.21192 0.182992,0.29222 0.0063,0.007 0.04893,0.0604 0.07015,0.0637 0.0045,6.9e-4 0.0343,-0.0374 0.03115,-0.0358 -1.15554,0.59087 -1.434251,0.6867 -1.02458,0.54311 0.06737,-0.0875 0.149594,-0.15308 0.202021,-0.25086 0.04107,-0.0681 0.0205,-0.0333 0.06168,-0.10444 0,0 1.146057,-0.4754 1.146057,-0.4754 v 0 c -0.05205,0.0561 -0.02963,0.0245 -0.06564,0.096 -0.04543,0.0644 -0.05849,0.14934 -0.122229,0.20213 -0.01239,0.0102 -0.02968,0.0141 -0.04223,0.0242 -0.01187,0.01 -0.02003,0.0226 -0.03004,0.0339 -0.136529,0.47809 -0.962553,0.93664 -1.295948,0.52012 -0.08096,-0.0929 -0.12891,-0.20567 -0.193319,-0.30918 -0.06376,-0.0957 -0.118796,-0.19551 -0.179413,-0.29233 -0.08701,-0.0837 -0.179825,-0.16247 -0.251602,-0.25927 -0.06279,-0.10533 -0.126237,-0.19655 -0.229871,-0.27193 -0.128423,-0.11772 -0.234053,-0.24981 -0.323956,-0.39651 -0.09479,-0.1817 -0.265568,-0.29865 -0.407493,-0.44607 -0.157206,-0.18835 -0.258622,-0.40615 -0.419425,-0.5911 -0.179517,-0.19654 -0.348503,-0.40871 -0.477165,-0.6389 -0.195635,-0.2822 -0.422652,-0.54228 -0.608576,-0.82955 -0.04307,-0.0768 -0.129599,-0.23367 -0.176618,-0.30645 -0.140514,-0.2175 -0.320733,-0.41151 -0.431158,-0.64666 -0.05243,-0.10515 -0.09874,-0.21325 -0.156805,-0.31567 -0.133474,-0.23542 -0.328869,-0.42849 -0.488945,-0.64644 -0.246488,-0.34397 -0.469875,-0.70451 -0.764775,-1.01467 -0.251179,-0.29344 -0.508119,-0.58251 -0.72265,-0.90227 -0.224114,-0.26809 -0.43324,-0.54639 -0.623528,-0.83739 -0.132725,-0.20024 -0.223797,-0.41833 -0.35775,-0.61776 -0.132246,-0.2006 -0.241134,-0.41508 -0.393399,-0.604 -0.124217,-0.15071 -0.287801,-0.26595 -0.416865,-0.4133 -0.113452,-0.1346 -0.221616,-0.27449 -0.36236,-0.38516 -0.11113,-0.10488 -0.201095,-0.22184 -0.310112,-0.32793 -0.113529,-0.1096 -0.246731,-0.19066 -0.371726,-0.28697 -0.08375,-0.0781 -0.188803,-0.13436 -0.269286,-0.21696 -0.0913,-0.076 -0.191561,-0.14061 -0.286437,-0.2123 -0.09632,-0.0912 -0.187126,-0.18771 -0.290577,-0.27193 -0.139907,-0.10102 -0.29726,-0.176 -0.439702,-0.27408 -0.203969,-0.12118 -0.422575,-0.22077 -0.632318,-0.33241 0,0 1.045347,-0.64754 1.045347,-0.64754 z"
       inkscape:connector-curvature="0" />
    <path
       style="fill:#000000;stroke-width:0.22947966"
       id="path16"
       d="m 29.660622,269.90284 c 0.003,-0.25251 0.02934,-0.50411 0.08131,-0.75161 0.04667,-0.18362 0.06983,-0.37046 0.08095,-0.55871 0.0065,-0.20796 0.106826,-0.39146 0.19262,-0.57767 0.08691,-0.23194 0.140437,-0.47257 0.222633,-0.70649 0.104142,-0.28454 0.228432,-0.56159 0.332806,-0.84625 0.09896,-0.34851 0.250086,-0.67753 0.413724,-1.00181 0.123815,-0.23503 0.161856,-0.4954 0.230419,-0.74658 0.01103,-0.0403 0.10106,-0.32053 0.112539,-0.35644 0.133547,-0.41737 0.31094,-0.81377 0.54853,-1.18647 0.262507,-0.40386 0.461134,-0.83913 0.65548,-1.27524 0.179687,-0.49041 0.412705,-0.95872 0.668343,-1.41666 0.265556,-0.49532 0.530433,-0.9903 0.82436,-1.47101 0.323884,-0.47223 0.514009,-1.00872 0.758148,-1.51907 0.226353,-0.49343 0.365748,-1.01669 0.563171,-1.52028 0.191323,-0.43197 0.337193,-0.88016 0.522701,-1.31403 0.150678,-0.37875 0.314762,-0.75394 0.418401,-1.14741 0.06945,-0.33776 0.201829,-0.65339 0.347363,-0.96625 0.08954,-0.22325 0.179172,-0.44669 0.262744,-0.67217 0.06825,-0.19542 0.155709,-0.38177 0.200242,-0.58388 0.01013,-0.18251 0.09039,-0.33916 0.183413,-0.49399 0.238265,-0.42806 0.890673,-0.98343 1.325764,-0.65235 0.105402,0.1113 0.121239,0.25928 0.134218,0.40228 0.0074,0.10666 0.0077,0.2136 0.0084,0.32045 0,0 -1.110252,0.53951 -1.110252,0.53951 v 0 c -1.34e-4,-0.10417 1.9e-5,-0.2084 -0.005,-0.31249 -0.0064,-0.0972 -10e-7,-0.22761 -0.07815,-0.30052 -0.01868,-0.003 -0.04108,-0.0109 -0.06,-8.5e-4 -0.009,0.005 -0.02812,0.0279 -0.01925,0.023 2.219009,-1.23557 1.185498,-0.79735 0.942222,-0.50635 -0.07837,0.1522 -0.20585,0.28236 -0.204437,0.46257 -0.0329,0.2126 -0.113786,0.40345 -0.194476,0.60258 -0.08418,0.22878 -0.174552,0.45398 -0.260386,0.68163 -0.145516,0.3095 -0.302524,0.61246 -0.366339,0.94987 -0.09009,0.40352 -0.265048,0.78075 -0.414407,1.16673 -0.189666,0.43313 -0.335249,0.88178 -0.528914,1.31368 -0.208492,0.50234 -0.342677,1.0294 -0.562503,1.528 -0.07977,0.16486 -0.162559,0.33197 -0.236037,0.49955 -0.154262,0.35183 -0.288168,0.71421 -0.5178,1.0308 -0.299365,0.4768 -0.56189,0.97168 -0.825904,1.46679 -0.259338,0.45124 -0.49238,0.91626 -0.667114,1.40383 -0.192806,0.44069 -0.390264,0.87984 -0.645557,1.29164 -0.249692,0.3674 -0.419536,0.73782 -0.556908,1.15512 -0.03533,0.11734 -0.07947,0.23216 -0.114784,0.3495 -0.07692,0.25568 -0.102683,0.52562 -0.219942,0.77036 -0.160506,0.32124 -0.324859,0.64116 -0.417896,0.98796 -0.09728,0.28615 -0.216876,0.56316 -0.325592,0.84474 -0.09032,0.23353 -0.145824,0.47301 -0.217388,0.71139 -0.0738,0.17948 -0.183704,0.34572 -0.208014,0.53962 -0.0089,0.19402 -0.02264,0.388 -0.07422,0.57684 -0.05723,0.23801 -0.09923,0.48184 -0.08817,0.7269 0,0 -1.110988,0.53943 -1.110988,0.53943 z"
       inkscape:connector-curvature="0" />
    <path
       style="fill:#000000;stroke-width:0.21977296"
       id="path18"
       d="m 38.837864,250.54874 c 0.02544,0.225 0.04905,0.45008 0.06425,0.67579 0.02661,0.17122 0.06177,0.34062 0.07889,0.51294 0.0159,0.19544 0.0157,0.39157 0.0159,0.58742 -0.0069,0.23187 -0.0036,0.45973 0.04015,0.68866 0.06516,0.30379 0.0931,0.6123 0.112039,0.92054 0.01288,0.37085 0.0086,0.74192 0.0087,1.11288 -0.0017,0.44138 -0.0014,0.88278 -0.0034,1.32417 0.0036,0.51923 -0.01998,1.03912 0.01573,1.55763 0.06449,0.56021 0.105019,1.12175 0.12776,1.68435 0.0026,0.36772 0.03148,0.73614 0.02101,1.10396 -0.0051,0.17976 -0.02708,0.37319 -0.04451,0.55215 -0.068,0.53624 -0.158068,1.07136 -0.250351,1.60508 -0.103815,0.55322 -0.154524,1.11201 -0.235584,1.66785 -0.09018,0.53698 -0.174685,1.07511 -0.269203,1.61161 -0.08988,0.53434 -0.209386,1.06419 -0.288375,1.59991 -0.0633,0.55189 -0.15767,1.09979 -0.207188,1.65299 -0.05195,0.51223 -0.164494,1.01646 -0.257248,1.52349 -0.07982,0.51491 -0.181321,1.02625 -0.239331,1.54363 -0.0304,0.46265 -0.11319,0.92078 -0.216768,1.37468 -0.08272,0.42211 -0.154686,0.8457 -0.230734,1.26888 -0.0486,0.37482 -0.102005,0.74764 -0.171797,1.11998 -0.04043,0.31719 -0.09412,0.63043 -0.164477,0.94356 -0.06062,0.25679 -0.08205,0.51815 -0.09408,0.77954 0.0059,0.23647 -0.02677,0.47078 -0.05346,0.70555 -0.03092,0.2 -0.02491,0.39789 0.0026,0.59736 0.03214,0.1871 0.02639,0.37722 0.05189,0.56462 0.03608,0.17672 0.05731,0.35472 0.07001,0.53375 0.04557,0.18835 0.109937,0.3713 0.144032,0.56197 0.02294,0.16298 0.0692,0.32181 0.0934,0.48484 0.01801,0.15239 0.06028,0.30132 0.08362,0.45325 0.02001,0.18453 0.09758,0.35931 0.14114,0.54063 0.03955,0.18826 0.0418,0.37984 0.07142,0.56926 0.06031,0.20871 0.08194,0.4209 0.165503,0.62402 0.07642,0.28583 0.221084,0.47658 0.40423,0.71555 0.118978,0.1471 0.174019,0.32806 0.298128,0.47234 0.05504,0.064 0.193102,0.1792 0.249811,0.22859 0.253576,0.16197 0.516911,0.31525 0.731255,0.51815 0.08648,0.0818 0.160588,0.17175 0.237332,0.26036 0.181092,0.232 0.418185,0.41958 0.598449,0.652 0.103955,0.14132 0.262101,0.24089 0.392014,0.36229 0.414718,0.38753 -0.184453,-0.15062 0.213886,0.20434 0.03541,0.0297 0.07246,0.058 0.106232,0.0892 0.09772,0.0902 0.186875,0.18273 0.294242,0.26513 0.0664,0.0509 0.136592,0.098 0.203493,0.14849 0.232447,0.14784 0.470819,0.28751 0.70735,0.43024 0.262525,0.15442 0.526243,0.30458 0.8255,0.39795 0.310006,0.0993 0.605478,0.22921 0.911202,0.3379 0,0 -1.019451,0.59562 -1.019451,0.59562 v 0 c -0.305326,-0.11126 -0.604266,-0.23681 -0.917269,-0.33119 -0.300339,-0.10742 -0.571718,-0.26059 -0.839624,-0.41952 -0.243421,-0.14196 -0.486212,-0.28468 -0.720134,-0.43849 -0.212157,-0.16264 -0.418187,-0.32819 -0.605847,-0.51275 -0.07197,-0.0659 -0.139171,-0.13568 -0.211427,-0.20132 -0.13764,-0.12505 -0.300345,-0.23135 -0.407315,-0.38032 -0.178957,-0.23014 -0.412343,-0.41881 -0.589784,-0.65018 -0.05979,-0.0694 -0.156887,-0.18556 -0.223802,-0.24966 -0.212752,-0.20376 -0.48131,-0.35126 -0.730763,-0.517 -0.09282,-0.0769 -0.197795,-0.15615 -0.275678,-0.24659 -0.12356,-0.14346 -0.172397,-0.32463 -0.290207,-0.47118 -0.177251,-0.23115 -0.355799,-0.45815 -0.427745,-0.7346 -0.02418,-0.0595 -0.06441,-0.15337 -0.07961,-0.2139 -0.03567,-0.14206 -0.04137,-0.29083 -0.09854,-0.42919 -0.03111,-0.18758 -0.03917,-0.37578 -0.06855,-0.56349 -0.0403,-0.18485 -0.120784,-0.36069 -0.148154,-0.54634 -0.02043,-0.1528 -0.06438,-0.30145 -0.08328,-0.45395 -0.02101,-0.16295 -0.06858,-0.32084 -0.08963,-0.48345 -0.0306,-0.19433 -0.0916,-0.38122 -0.150104,-0.57028 -0.0099,-0.17657 -0.02832,-0.35247 -0.06636,-0.52633 -0.03015,-0.18738 -0.01923,-0.37822 -0.0517,-0.56578 -0.02902,-0.2069 -0.04461,-0.4119 -0.01104,-0.61985 0.0241,-0.23347 0.06667,-0.46554 0.05878,-0.70069 0.0092,-0.26686 0.0281,-0.53427 0.08938,-0.79647 0.03303,-0.14914 0.07934,-0.29897 0.103915,-0.44932 0.02674,-0.16357 0.02625,-0.33102 0.06632,-0.49329 0.03471,-0.18112 0.08072,-0.36301 0.105047,-0.54544 0.02555,-0.19164 0.02781,-0.38623 0.07232,-0.57612 0.0779,-0.4246 0.1492,-0.84952 0.23075,-1.27342 0.101798,-0.45154 0.199495,-0.90578 0.225477,-1.36649 0.05511,-0.52003 0.163641,-1.03251 0.238509,-1.55025 0.08722,-0.50604 0.204761,-1.00764 0.26461,-1.51735 0.04578,-0.55512 0.140692,-1.10404 0.204553,-1.65728 0.07041,-0.53758 0.196829,-1.06738 0.284435,-1.60286 0.05245,-0.27002 0.0837,-0.54119 0.1319,-0.81175 0.03154,-0.17709 0.07326,-0.35273 0.103258,-0.53001 0.01504,-0.089 0.02521,-0.17853 0.0378,-0.26779 0.08434,-0.55623 0.131717,-1.11599 0.234593,-1.67013 0.04848,-0.2722 0.0811,-0.54548 0.128379,-0.8178 0.0046,-0.0268 0.09103,-0.48858 0.09538,-0.51821 0.01281,-0.0872 0.01961,-0.17502 0.0294,-0.26252 0.01291,-0.12821 0.04371,-0.41279 0.04828,-0.54283 0.01291,-0.36717 -0.0159,-0.7356 -0.01615,-1.10275 -0.02207,-0.56104 -0.06091,-1.12122 -0.130111,-1.6795 -0.0435,-0.51964 -0.01218,-1.04124 -0.02395,-1.56194 -0.0017,-0.44066 -2.35e-4,-0.8813 -0.0014,-1.32195 -1.43e-4,-0.36806 -9.77e-4,-0.73627 -0.01533,-1.10415 -0.01481,-0.3041 -0.03736,-0.60872 -0.105933,-0.9078 -0.0079,-0.0368 -0.05063,-0.22978 -0.05476,-0.2694 -0.01495,-0.14334 0.01133,-0.28994 -1.77e-4,-0.43355 -0.0014,-0.19289 -0.0012,-0.38595 -0.0145,-0.57857 -0.015,-0.17374 -0.04736,-0.34489 -0.0786,-0.51685 -0.01058,-0.22281 -0.02669,-0.44579 -0.06468,-0.6665 0,0 1.103778,-0.50676 1.103778,-0.50676 z"
       inkscape:connector-curvature="0" />
  </g>
</svg>
