<?xml version="1.0" encoding="UTF-8" standalone="no"?>
<!-- Created with Inkscape (http://www.inkscape.org/) -->

<svg
   xmlns:dc="http://purl.org/dc/elements/1.1/"
   xmlns:cc="http://creativecommons.org/ns#"
   xmlns:rdf="http://www.w3.org/1999/02/22-rdf-syntax-ns#"
   xmlns:svg="http://www.w3.org/2000/svg"
   xmlns="http://www.w3.org/2000/svg"
   xmlns:sodipodi="http://sodipodi.sourceforge.net/DTD/sodipodi-0.dtd"
   xmlns:inkscape="http://www.inkscape.org/namespaces/inkscape"
   width="200"
   height="200"
   viewBox="0 0 52.916666 52.916666"
   version="1.1"
   id="svg8"
   sodipodi:docname="power.svg"
   inkscape:version="0.92.3 (d244b95, 2018-08-02)">
  <defs
     id="defs2" />
  <sodipodi:namedview
     id="base"
     pagecolor="#ffffff"
     bordercolor="#666666"
     borderopacity="1.0"
     inkscape:pageopacity="0.0"
     inkscape:pageshadow="2"
     inkscape:zoom="2.8"
     inkscape:cx="198.90046"
     inkscape:cy="75.432978"
     inkscape:document-units="px"
     inkscape:current-layer="layer1"
     showgrid="false"
     units="px"
     inkscape:window-width="1920"
     inkscape:window-height="1056"
     inkscape:window-x="1920"
     inkscape:window-y="0"
     inkscape:window-maximized="1" />
  <metadata
     id="metadata5">
    <rdf:RDF>
      <cc:Work
         rdf:about="">
        <dc:format>image/svg+xml</dc:format>
        <dc:type
           rdf:resource="http://purl.org/dc/dcmitype/StillImage" />
        <dc:title></dc:title>
      </cc:Work>
    </rdf:RDF>
  </metadata>
  <g
     inkscape:label="Layer 1"
     inkscape:groupmode="layer"
     id="layer1"
     transform="translate(0,-244.08334)">
    <rect
       style="fill:#c8beb7;stroke-width:0.29422158"
       id="rect22"
       width="51.59375"
       height="51.59375"
       x="0.66145831"
       y="244.7448" />
    <path
       style="fill:#000000;stroke-width:0.26458332"
       id="path70"
       d="m 14.344211,289.06882 c 0.03966,-0.0201 0.07885,-0.0412 0.118983,-0.0604 0.04548,-0.0217 0.093,-0.0391 0.137817,-0.0622 0.04326,-0.0223 0.168365,-0.0975 0.12606,-0.0735 -1.833941,1.04083 -1.308602,0.77197 -0.900432,0.48779 4.260686,-2.44666 -2.792672,1.60481 1.435608,-0.82553 0.379693,-0.21824 -0.758156,0.43862 -1.138907,0.65501 -0.03737,0.0213 0.06784,-0.0534 0.09699,-0.085 0.06225,-0.12212 0.164777,-0.21201 0.255955,-0.31106 0.06694,-0.1193 0.134345,-0.23789 0.206013,-0.35468 0.07038,-0.16207 0.08084,-0.34061 0.133998,-0.50892 0.01487,-0.0268 0.02601,-0.0561 0.04457,-0.0805 0.01349,-0.0177 0.128199,-0.12574 0.143137,-0.14134 0.0671,-0.0701 0.12468,-0.14837 0.183298,-0.22541 0.105492,-0.18395 0.131525,-0.38011 0.24778,-0.56114 0.118872,-0.16492 0.276524,-0.29111 0.404926,-0.44908 0.114978,-0.16702 0.141208,-0.37297 0.213485,-0.55945 0.09217,-0.18332 0.232719,-0.33768 0.371887,-0.4867 0.150194,-0.14419 0.187534,-0.34373 0.247738,-0.53371 0.04896,-0.17207 0.178014,-0.29379 0.296161,-0.42032 0.123312,-0.13821 0.142232,-0.32106 0.184962,-0.49358 0.03593,-0.18606 0.158131,-0.29651 0.297294,-0.40901 0.12128,-0.10867 0.140428,-0.26363 0.15498,-0.41696 -0.0042,-0.16677 0.03975,-0.31899 0.105876,-0.46942 0.07746,-0.15273 0.130114,-0.31071 0.158636,-0.47923 0.0177,-0.20126 0.02658,-0.40091 0.06294,-0.60002 0.01646,-0.16456 0.06348,-0.32178 0.102942,-0.48146 0.04369,-0.19036 0.03712,-0.38659 0.0542,-0.57993 0.03224,-0.17064 0.06111,-0.34109 0.07564,-0.51423 0.0026,-0.18977 0.01886,-0.37624 0.05088,-0.56318 0.03494,-0.1881 0.04546,-0.3791 0.05324,-0.56985 0.0056,-0.21253 0.0045,-0.42517 0.0041,-0.63776 -0.0021,-0.18038 0.01045,-0.36044 -0.02252,-0.53849 -0.04287,-0.17807 -0.05662,-0.36002 -0.06482,-0.54234 -0.03043,-0.17242 -0.04982,-0.34854 -0.09028,-0.51896 -0.05816,-0.18291 -0.07927,-0.3741 -0.09426,-0.56455 -0.006,-0.22068 -0.05151,-0.43753 -0.07778,-0.65628 -0.02074,-0.22248 -0.02545,-0.446 -0.0285,-0.6693 -0.0043,-0.15625 -0.06009,-0.29809 -0.111712,-0.44264 -0.05565,-0.16768 -0.0666,-0.34447 -0.07449,-0.51959 0.0082,-0.18815 -0.02852,-0.37167 -0.0567,-0.55651 -0.01945,-0.16919 -0.07543,-0.33033 -0.104364,-0.49804 -0.02675,-0.18234 -0.02931,-0.36694 -0.03169,-0.55085 -0.0026,-0.1768 0.0099,-0.35306 -0.02196,-0.52766 -0.03915,-0.1693 -0.05539,-0.34202 -0.06507,-0.51511 0.01193,-0.1674 -0.03553,-0.32757 -0.05409,-0.49177 0.0028,-0.15554 0.0249,-0.30994 0.0349,-0.46522 0.01,-0.18355 0.0109,-0.36742 0.0118,-0.55119 -7.94e-4,-0.19355 -0.0059,-0.38599 0.02207,-0.57789 0.02254,-0.19313 0.0767,-0.3797 0.1173,-0.56924 0.03934,-0.18194 0.03712,-0.36858 0.0547,-0.5529 0.03454,-0.16194 0.06254,-0.32413 0.07674,-0.48915 0.01249,-0.18356 0.01265,-0.36765 0.01328,-0.55155 0.0068,-0.16593 -0.0409,-0.32675 -0.06511,-0.48972 -0.02379,-0.1822 -0.02694,-0.36616 -0.02951,-0.54962 0.01397,-0.1927 -0.02323,-0.38021 -0.053,-0.56927 -0.02872,-0.18701 -0.03575,-0.37622 -0.04016,-0.56506 -0.0045,-0.16443 0.01484,-0.33203 -0.04525,-0.48845 -0.08509,-0.14445 -0.07679,-0.30403 -0.08482,-0.46406 -0.03026,-0.12293 0.0049,-0.2465 -0.0086,-0.36983 -0.02363,-0.13518 -0.08436,-0.25705 -0.103839,-0.39402 0.0021,-0.15734 0.02715,-0.3133 0.03839,-0.47027 -0.0087,-0.15762 0.03716,-0.3108 0.04193,-0.46679 -0.02831,-0.0991 -0.03894,-0.18866 -0.0067,-0.28759 -0.02801,-0.10931 -0.04687,-0.19642 -0.0061,-0.30565 0.01984,-0.0836 -0.02901,-0.16119 -0.02931,-0.2555 0.05381,-0.11703 0.04471,-0.2404 0.05862,-0.365 0.02828,-0.13169 -0.01042,-0.26169 -0.0021,-0.39432 0.014,-0.13365 -0.07237,-0.16595 -0.09093,-0.30836 0.02706,-0.0946 0.0787,-0.15502 0.04674,-0.25389 -0.0534,-0.11718 -0.02461,-0.24387 -0.04073,-0.3667 -0.0024,-0.11863 0.0045,-0.23343 -0.005,-0.35213 0.0062,-0.11726 0.03712,-0.23022 -0.0044,-0.34381 -0.0483,-0.10733 -0.0038,-0.21548 -0.03883,-0.3235 -0.05548,-0.0948 0.01725,-0.18765 0.0073,-0.2813 -0.05681,-0.11041 -0.04726,-0.22541 -0.04722,-0.34439 -0.01871,-0.12979 -0.03712,-0.25947 -0.05014,-0.38999 -0.0028,-0.0115 -0.0055,-0.023 -0.0083,-0.0345 0,0 1.236329,-0.6771 1.236329,-0.6771 v 0 c 0.0071,0.0206 0.01421,0.0412 0.02133,0.0618 0.0087,0.13073 0.02312,0.26106 0.05,0.38945 0.0163,0.11043 -0.02746,0.21611 0.03556,0.31797 0.01984,0.0537 0.03848,0.11219 0.02397,0.17086 -0.0059,0.0239 -0.03472,0.0378 -0.04044,0.0617 -0.0034,0.0144 0.0024,0.0294 0.0037,0.0442 0.02252,0.0598 0.05779,0.12279 0.05026,0.18899 -0.0031,0.0273 -0.02577,0.0508 -0.02585,0.0782 -5.5e-5,0.0174 0.0075,0.0339 0.01122,0.0508 0.05472,0.12812 0.06419,0.2566 0.03199,0.39271 -0.01667,0.10771 0.03745,0.22204 -0.0076,0.33085 0.0044,0.0236 0.02188,0.1118 0.02265,0.1347 0.0024,0.0722 -0.03225,0.13997 0.0068,0.20883 0.03983,0.10359 0.08706,0.23497 -0.0081,0.32366 -0.0091,0.002 -0.02199,-0.002 -0.02719,0.005 -0.0096,0.0139 0.150548,0.23035 0.107993,0.29065 -0.02598,0.15311 0.02164,0.24858 0.0029,0.39777 -0.0068,0.0417 -0.01942,0.0828 -0.02066,0.12504 -0.0026,0.088 0.02857,0.17358 -0.02723,0.253 -0.07767,0.0721 0.05947,0.17746 0.03302,0.2673 -0.01103,0.0332 -0.05625,0.096 -0.05849,0.10335 -0.01725,0.0564 0.04997,0.11547 0.04942,0.17024 0.0026,0.0559 0.01328,0.0613 -0.01447,0.10333 -0.005,0.008 -0.01691,0.0105 -0.01947,0.0192 -0.01323,0.0455 0.02487,0.11322 0.03225,0.15283 0.0091,0.1638 -0.04857,0.31347 -0.04011,0.4781 -0.0077,0.15185 -0.01913,0.30348 -0.04311,0.45376 -0.0086,0.13738 0.08171,0.24921 0.09888,0.38268 0.005,0.0279 0.02048,0.10747 0.02069,0.13498 5.29e-4,0.082 -0.04205,0.16041 -0.01008,0.24234 0.01868,0.14675 -0.02159,0.29508 0.06532,0.42828 0.0714,0.17189 0.07116,0.35103 0.0664,0.53495 0.0029,0.1832 0.007,0.36683 0.03174,0.54865 0.02865,0.19499 0.07543,0.38808 0.06198,0.58666 0.0016,0.17782 0.0032,0.35606 0.02257,0.53302 0.02236,0.16991 0.07461,0.33623 0.07281,0.50809 -1.32e-4,0.18664 2.41e-4,0.37337 -0.008,0.55986 -0.0098,0.16827 -0.02506,0.3367 -0.07084,0.49966 -0.04271,0.18198 -0.01254,0.37487 -0.0541,0.55842 -0.03443,0.19017 -0.09647,0.37299 -0.119192,0.5652 -0.03412,0.18542 -0.03842,0.3691 -0.03182,0.5578 -5.29e-4,0.18567 -7.94e-4,0.3714 -0.0075,0.55698 -0.0067,0.15117 -0.01707,0.30211 -0.03863,0.452 -0.0087,0.16435 0.0772,0.32456 0.05065,0.49221 0.0073,0.16669 0.01878,0.33363 0.05704,0.4966 0.03793,0.18281 0.0357,0.36497 0.03207,0.55132 0.0013,0.17735 0.0024,0.35526 0.02331,0.53161 0.02519,0.16956 0.08295,0.33074 0.103637,0.50051 0.02702,0.18955 0.07414,0.37679 0.06434,0.56957 0.0052,0.16155 0.01032,0.3253 0.05697,0.48132 0.05508,0.15952 0.119145,0.31404 0.129305,0.4855 0.0011,0.219 0.0026,0.43833 0.0218,0.65666 0.02294,0.22103 0.06922,0.43923 0.08121,0.66099 0.01132,0.18238 0.02677,0.36627 0.08483,0.54079 0.04867,0.17833 0.05902,0.36619 0.100624,0.5466 0.0071,0.17505 0.0176,0.35052 0.05831,0.52161 0.03912,0.18693 0.03632,0.37355 0.03235,0.56416 -1.45e-4,0.21387 -2.64e-4,0.42775 -0.003,0.64161 -0.0028,0.19626 -0.0114,0.39286 -0.04296,0.58692 -0.0312,0.18335 -0.06488,0.36306 -0.05614,0.55042 -0.01035,0.17611 -0.02797,0.35181 -0.07193,0.52322 -0.03901,0.19324 -0.01119,0.39385 -0.04772,0.58828 -0.03065,0.16179 -0.09557,0.3128 -0.1061,0.47827 -0.03733,0.19787 -0.07036,0.39198 -0.06589,0.59479 -0.02051,0.17609 -0.05094,0.35291 -0.141452,0.50845 -0.0525,0.14368 -0.143282,0.26936 -0.127066,0.43137 -0.0088,0.17427 -0.0181,0.35474 -0.11148,0.50767 -0.104907,0.12606 -0.275479,0.17206 -0.330819,0.3406 -0.04707,0.18522 -0.06333,0.38066 -0.158729,0.54945 -0.09765,0.13545 -0.235389,0.22742 -0.318275,0.37212 -0.06386,0.20028 -0.09757,0.41886 -0.225102,0.59034 -0.04743,0.0526 -0.103918,0.0967 -0.149569,0.15088 -0.02283,0.0271 -0.03528,0.0618 -0.05764,0.0893 -0.0585,0.0719 -0.145687,0.11857 -0.178779,0.21143 -0.116951,0.17296 -0.111866,0.39389 -0.203692,0.58042 -0.05604,0.0828 -0.119118,0.17577 -0.186163,0.24956 -0.104577,0.11509 -0.04784,0.0186 -0.160137,0.11998 -0.02379,0.0215 -0.04045,0.0497 -0.06068,0.0745 -0.03722,0.0513 -0.08172,0.0975 -0.115178,0.15131 -0.07734,0.12447 -0.0565,0.28077 -0.134692,0.4066 -0.08905,0.16302 -0.213029,0.33239 -0.377666,0.42435 -0.09051,0.15856 -0.08835,0.34205 -0.129117,0.51646 -0.05457,0.13182 -0.157893,0.23319 -0.197858,0.37197 -0.06466,0.12359 -0.178977,0.19345 -0.259466,0.30437 -0.215498,0.51675 -0.843537,0.55315 -1.337977,0.88024 -0.362749,0.23997 1.509009,-0.86577 1.129366,-0.65353 -0.423648,0.23684 -2.771267,1.60628 -0.166179,0.0891 -0.622507,0.37203 -1.217311,0.80518 -1.891901,1.08125 0,0 1.1043,-0.8645 1.1043,-0.8645 z"
       inkscape:connector-curvature="0" />
    <path
       style="fill:#000000;stroke-width:0.26458332"
       id="path72"
       d="m 17.052611,257.15485 c 0.04518,-0.2598 0.0236,-0.52452 0.01122,-0.78623 -0.01053,-0.20373 -0.0149,-0.40768 -0.0172,-0.61164 -0.01199,-0.17196 0.03518,-0.33835 0.06198,-0.50652 0.02482,-0.17644 0.02797,-0.35487 0.0307,-0.53272 -0.0058,-0.17103 0.03229,-0.33889 0.06999,-0.50459 0.05916,-0.14364 0.07614,-0.29931 0.129551,-0.44421 0.06987,-0.12649 0.13385,-0.24758 0.259813,-0.32453 0.443378,-0.36212 0.802547,-0.49331 1.425635,-0.8518 0.143542,-0.0826 -0.03254,0.003 0.121277,-0.0682 0.0458,-0.0259 0.100071,-0.0211 0.148199,-0.0379 0.345906,-0.12103 1.895927,-1.0696 -0.940356,0.55214 0.439251,-0.32238 0.923732,-0.53848 1.409237,-0.81442 0.07051,-0.0401 0.128381,-0.0719 0.206267,-0.0971 0.0263,-0.006 0.05356,-0.008 0.07893,-0.0172 0.02281,-0.008 0.04289,-0.0225 0.06433,-0.0337 0.02281,-0.009 0.04514,-0.0194 0.06839,-0.0272 0.0756,-0.0254 0.144391,-0.0316 0.216183,-0.0679 0.142039,-0.0468 0.264358,-0.12114 0.412025,-0.15318 0.161136,-0.01 0.307321,-0.0731 0.466016,-0.0993 0.140652,-0.077 0.298312,-0.0964 0.455358,-0.11004 0.183994,-0.0119 0.368501,-0.0112 0.552794,-0.0114 0.167389,-0.0519 0.339331,-0.0699 0.513249,-0.081 0.208267,-0.0112 0.416899,-0.0127 0.625414,-0.0122 0.219266,4e-4 0.438531,-3.9e-4 0.657797,5.6e-4 0.03816,6e-5 0.07686,0.007 0.114496,1.8e-4 0.01701,-0.003 0.167759,-0.0658 0.184393,-0.0722 0.0901,-0.0346 0.179676,-0.0591 0.273786,-0.0798 0.211373,-0.0304 0.425124,-0.0352 0.638286,-0.0382 0.198432,-10e-4 0.396877,-9.8e-4 0.595307,3.7e-4 0.213286,8.7e-4 0.426574,5.5e-4 0.639863,3.9e-4 0.197877,-0.0319 0.355288,0.0738 0.535593,0.13256 0.179523,0.036 0.351925,0.0943 0.533599,0.12079 0.191921,0.0247 0.376282,0.0826 0.569071,0.1063 0.16972,0.0669 0.349546,0.0874 0.529873,0.10172 0.180885,0.0646 0.375518,0.0626 0.558665,0.11315 0.08173,0.0379 0.177416,0.0317 0.261573,0.0569 0.10601,0.0317 0.210158,0.0885 0.314631,0.12671 0.212342,0.0679 0.426067,0.12663 0.635675,0.20219 0.192926,0.0621 0.385937,0.11893 0.575643,0.18991 0.169471,0.0475 0.330632,0.11018 0.504638,0.14172 0.155874,0.0834 0.305154,0.182 0.445259,0.28961 0.128191,0.0922 0.269237,0.16047 0.409855,0.23106 0.117544,0.0905 0.254347,0.14601 0.368618,0.24102 0.109432,0.0808 0.236469,0.13217 0.349848,0.20569 0.09317,0.10349 0.199459,0.18749 0.30422,0.27706 0.110117,0.0796 0.216755,0.1678 0.310251,0.26688 0.11121,0.0845 0.18982,0.19585 0.274508,0.30436 0.0801,0.123 0.189047,0.22351 0.282979,0.33574 0.06841,0.12889 0.164487,0.2252 0.269137,0.32206 0.0834,0.11511 0.156856,0.23726 0.236159,0.35562 0.1094,0.0893 0.131239,0.23632 0.220009,0.33878 0.107122,0.0967 0.173133,0.21456 0.243679,0.33828 0.08055,0.11856 0.136319,0.2475 0.197284,0.37652 0.05505,0.13452 0.162272,0.23712 0.252206,0.34846 0.08436,0.13731 0.158131,0.28215 0.205274,0.43666 0.03972,0.16343 0.143733,0.28113 0.247735,0.40694 0.119563,0.15468 0.150598,0.34741 0.193291,0.53283 0.0461,0.17978 0.16409,0.32417 0.251897,0.48352 0.07342,0.18114 0.178853,0.34276 0.24012,0.52981 0.04071,0.19465 0.06219,0.39163 0.101581,0.58697 0.05894,0.15305 0.103582,0.30799 0.128149,0.47018 0.02223,0.18411 0.02281,0.36988 0.02402,0.55504 5.29e-4,0.18922 -2.01e-4,0.37845 -5.29e-4,0.56767 0.0071,0.18121 -5.29e-4,0.35871 -0.03597,0.53645 -0.0227,0.15411 -0.08464,0.29709 -0.117743,0.44872 -0.01201,0.16432 -0.12768,0.24754 -0.225353,0.36119 -0.09539,0.0945 -0.16755,0.21131 -0.227346,0.33094 -0.06705,0.1204 -0.182925,0.19905 -0.263176,0.30906 -0.08418,0.10604 -0.200919,0.17677 -0.283078,0.28438 -0.0398,0.0464 -0.051,0.065 -0.101346,0.10105 -0.444547,0.31862 -1.087056,0.64419 -1.458671,0.85858 -0.05314,0.0274 -0.114176,0.0243 -0.169736,0.0419 -0.02519,0.008 -0.09506,0.046 -0.07213,0.0329 0.380892,-0.21818 0.763741,-0.43292 1.146289,-0.64818 0.02066,-0.0116 -0.04006,0.0254 -0.06056,0.0372 -0.421481,0.24433 -0.843584,0.48759 -1.265375,0.73138 0.381675,-0.21981 0.762307,-0.44144 1.145027,-0.65943 0.02021,-0.0115 -0.03712,0.0282 -0.05725,0.0399 -0.421648,0.24375 -0.844405,0.48558 -1.267862,0.72617 -0.383032,0.21761 1.517912,-0.8943 1.146585,-0.65726 -1.025091,0.65437 -0.815763,0.57725 -1.331833,0.75518 0.382558,-0.21817 1.524344,-0.88272 1.147675,-0.65452 -0.416041,0.25204 -0.840171,0.49067 -1.265836,0.7261 -0.02484,0.0138 -0.107285,0.0343 -0.08284,0.0198 1.992215,-1.17671 1.380046,-0.80089 0.971624,-0.54018 -0.533313,0.36053 -1.076661,0.72259 -1.66697,0.97937 0.05156,-0.058 -0.212778,0.0991 -0.161785,0.0699 3.769905,-2.15629 -2.895809,1.65675 0.904862,-0.51895 -4.242009,2.43369 0.779063,-0.43921 -0.19141,0.12084 -0.425188,0.24537 -0.84886,0.49358 -1.279427,0.72939 -0.02706,0.0148 -0.06098,0.0109 -0.09022,0.0207 -0.02695,0.009 -0.05162,0.0239 -0.07743,0.0359 -0.166319,0.0506 -0.301035,0.16136 -0.460549,0.22554 3.000063,-1.72193 -0.08471,0.055 -0.128662,0.0799 -0.06541,0.0369 -0.08051,0.0184 -0.149892,0.0448 -0.04511,0.0172 -0.08588,0.0444 -0.130508,0.0628 -0.427638,0.22457 -0.983207,0.52358 0.9901,-0.5719 0.05843,-0.0324 -0.105444,0.0829 -0.163505,0.116 -0.430276,0.24522 -0.862877,0.48634 -1.294317,0.72951 -0.07149,0.0596 -0.164061,0.0762 -0.245325,0.11437 -0.07346,0.0345 -0.132588,0.074 -0.211063,0.10027 -0.116779,0.0412 -0.24211,0.0249 -0.361953,0.0418 -0.06064,0.009 -0.119015,0.029 -0.178649,0.0429 -0.170074,0.036 -0.348157,0.0671 -0.507111,0.13992 -0.107947,0.0706 -0.244562,0.0471 -0.36027,0.0836 -0.06049,0.0191 -0.111659,0.0602 -0.16823,0.0889 -0.08666,0.0324 -0.167973,0.0647 -0.249711,0.10695 -0.02418,0.0125 -0.09774,0.0478 -0.07417,0.0342 1.306052,-0.7556 1.502272,-0.8827 1.07977,-0.61219 -0.753984,0.52409 -1.041567,0.74898 -1.761927,0.78052 -0.185431,0.0174 -0.39061,0.0308 -0.565846,0.0992 -0.168121,0.0439 -0.332121,0.0976 -0.50116,0.13938 -0.176726,0.0108 -0.340935,0.0699 -0.513432,0.0999 -0.03224,0.004 -0.06596,0.002 -0.09671,0.0131 -0.05779,0.02 -0.104143,0.0645 -0.159007,0.0915 -0.02764,0.0136 -0.11117,0.0528 -0.08453,0.0373 1.872617,-1.0876 1.458245,-0.84064 1.060524,-0.60299 -1.014228,0.8158 -0.957168,0.59891 -1.672278,0.82469 -0.104796,0.0397 -0.220321,0.026 -0.327721,0.0473 -0.05335,0.0106 -0.104018,0.0321 -0.157036,0.0443 -0.14451,0.0984 -0.325321,0.0949 -0.480255,0.16064 -0.158697,0.0521 -0.322488,0.077 -0.483979,0.11922 -0.177342,0.0176 -0.341992,0.0739 -0.513736,0.11536 -0.02744,0.005 -0.05569,0.006 -0.08231,0.0144 -0.04722,0.0145 -0.08943,0.0427 -0.1364,0.0581 -0.07679,0.0251 -0.155337,0.0358 -0.235053,0.0463 -0.117174,0.0229 -0.239689,0.002 -0.356974,0.0174 -0.05211,0.007 -0.101607,0.0271 -0.152534,0.0401 -0.167635,0.0393 -0.340181,0.0462 -0.511559,0.0518 -0.190513,-0.001 -0.342741,-0.004 -0.528167,0.042 -0.1677,0.0391 -0.340172,0.0465 -0.511574,0.0522 -0.123153,0.0138 -0.250349,-0.0103 -0.373158,0.004 -0.0528,0.006 -0.10314,0.0257 -0.154718,0.0385 -0.16769,0.0391 -0.340159,0.0465 -0.511556,0.0522 -0.185213,0.011 -0.363577,0.008 -0.544009,-0.0338 -0.162145,-0.0461 -0.333439,-0.0301 -0.49489,-0.0735 -0.165719,-0.033 -0.324954,-0.0865 -0.489114,-0.12565 -0.12418,-0.0627 -0.255186,-0.0995 -0.391798,-0.12136 0,0 1.15229,-0.8028 1.15229,-0.8028 v 0 c 0.13549,0.0324 0.2639,0.0818 0.395067,0.1279 0.161232,0.0437 0.322686,0.0852 0.486405,0.11889 0.165433,0.0206 0.332068,0.0329 0.494546,0.0731 0.17299,0.0276 0.348459,0.0122 0.522817,0.007 0.168502,-0.011 0.335793,-0.0311 0.500483,-0.0696 0.178408,-0.0269 0.359251,-0.012 0.538948,-0.0249 0.168513,-0.0111 0.335812,-0.0311 0.500526,-0.0696 0.178533,-0.0269 0.359476,-0.0118 0.539297,-0.0245 0.168212,-0.0108 0.33541,-0.0301 0.499343,-0.0709 0.169474,-0.029 0.343051,-0.018 0.511871,-0.054 0.151487,-0.0354 0.294232,-0.0977 0.447323,-0.12727 0.169273,-0.0476 0.342403,-0.071 0.512789,-0.11417 0.160525,-0.0409 0.325205,-0.0653 0.480134,-0.12685 0.166656,-0.0386 0.32353,-0.10061 0.486508,-0.15052 0.159372,-0.0375 0.325318,-0.0435 0.480605,-0.0998 0.0773,-0.0222 0.156607,-0.0337 0.233651,-0.0564 0.434758,-0.12826 1.199012,-0.82311 -0.984835,0.59503 0.552702,-0.31762 1.07537,-0.758 1.708436,-0.89186 0.168616,-0.0432 0.340442,-0.0628 0.508989,-0.10613 0.166423,-0.0497 0.335003,-0.0899 0.501193,-0.14049 0.192558,-0.0346 0.385416,-0.0715 0.581702,-0.0748 0.619059,-0.0544 1.241772,-0.51011 -0.678032,0.55981 0.538065,-0.33004 1.065705,-0.67994 1.653638,-0.90937 0.174247,-0.0696 0.364583,-0.0852 0.53634,-0.16463 0.17186,-0.0467 0.342175,-0.0966 0.518554,-0.12406 0.176278,-0.0327 0.361148,-0.0299 0.526907,-0.10624 0.149688,-0.073 0.300773,-0.14246 0.44971,-0.21712 -0.370573,0.21521 -0.742173,0.42866 -1.111719,0.64563 -0.05595,0.0328 0.112718,-0.0643 0.168453,-0.0975 0.422383,-0.25178 0.845349,-0.5026 1.269341,-0.75166 0.04358,-0.0256 0.101229,-0.0494 0.147415,-0.0697 0.06799,-0.0299 0.13929,-0.0506 0.205967,-0.0835 0.02212,-0.0109 0.08608,-0.0481 0.06476,-0.0357 -1.146611,0.66499 -1.978408,1.14032 0.133887,-0.0716 0.150527,-0.0827 0.302374,-0.16196 0.465318,-0.21839 0.05519,-0.0188 0.21332,-0.0928 0.163224,-0.063 -0.374229,0.22296 -0.751689,0.44047 -1.128459,0.65912 -0.02103,0.0122 0.04024,-0.0273 0.06115,-0.0397 0.419666,-0.24911 0.860221,-0.4656 1.260504,-0.7448 0.357587,-0.24941 -0.754671,0.43678 -1.132007,0.65517 4.247351,-2.44525 -0.779854,0.45409 0.225547,-0.1255 0.425982,-0.24557 0.850011,-0.49455 1.277768,-0.73701 0.05079,-0.0288 0.112236,-0.0356 0.160584,-0.0699 0.425701,-0.23371 1.014801,-0.57766 -0.967129,0.56834 -0.02567,0.0148 0.05054,-0.0312 0.07433,-0.0489 0.152051,-0.11313 -0.009,-0.013 0.158036,-0.11037 0.442386,-0.32597 1.006377,-0.59224 1.440244,-0.83755 0.02344,-0.0133 0.09515,-0.0504 0.07188,-0.0368 -0.380333,0.22125 -1.534755,0.86066 -1.143161,0.66002 0.43294,-0.22183 0.844891,-0.48243 1.267338,-0.72365 0.567862,-0.32397 -2.262883,1.29082 -1.08145,0.62763 0.424082,-0.23806 0.837668,-0.49459 1.263132,-0.73017 0.384836,-0.21309 -0.760762,0.44189 -1.141236,0.66268 -0.01982,0.0115 0.0395,-0.0232 0.05924,-0.0348 0.419534,-0.24619 0.839068,-0.49239 1.258602,-0.73858 -3.03748,1.76497 0.185227,-0.10005 0.19141,-0.10348 0.06987,-0.0387 0.166807,-0.033 0.230166,-0.0893 -0.376486,0.21937 -0.752755,0.43911 -1.129458,0.65811 -0.02254,0.0131 0.04586,-0.0251 0.06699,-0.0404 0.03958,-0.0286 0.06968,-0.0676 0.113438,-0.091 0.268639,-0.14346 -0.129347,0.0962 0.118983,-0.0566 0.108045,-0.11574 -0.01849,0.0274 0.08086,-0.11235 0.05039,-0.0709 0.136371,-0.11743 0.202975,-0.17028 0.101875,-0.11005 -0.0122,0.021 0.07975,-0.11249 0.0491,-0.0713 0.131617,-0.11713 0.192072,-0.17739 0.08101,-0.11368 0.124195,-0.25237 0.213677,-0.36196 0.121359,-0.10651 -0.02312,0.0273 0.08929,-0.10126 0.06008,-0.0687 0.157258,-0.0777 0.172643,-0.18418 0.02331,-0.15666 0.07758,-0.29995 0.116398,-0.45112 0.03502,-0.17107 0.06871,-0.33585 0.05034,-0.51257 2.65e-4,-0.18893 7.94e-4,-0.37786 7.94e-4,-0.5668 -5.29e-4,-0.17936 -9e-5,-0.35913 -0.01675,-0.53789 -0.01984,-0.16074 -0.06171,-0.31353 -0.123412,-0.46354 -0.03685,-0.19106 -0.06668,-0.38139 -0.0942,-0.57369 -0.05343,-0.1806 -0.157388,-0.33248 -0.227706,-0.50517 -0.09234,-0.17121 -0.215966,-0.32726 -0.267375,-0.51854 -0.03798,-0.16303 -0.06213,-0.3373 -0.164142,-0.47471 -0.115432,-0.13977 -0.227108,-0.27849 -0.277302,-0.45627 -0.03723,-0.13793 -0.103685,-0.26569 -0.177218,-0.38741 -0.09821,-0.11896 -0.210058,-0.23278 -0.270023,-0.37709 -0.06026,-0.12549 -0.112292,-0.25241 -0.19249,-0.36764 -0.06661,-0.11766 -0.133085,-0.22473 -0.232785,-0.31907 -0.08445,-0.11191 -0.121478,-0.24984 -0.225661,-0.34857 -0.07371,-0.1086 -0.139501,-0.22306 -0.218792,-0.32687 -0.110535,-0.099 -0.200678,-0.21045 -0.277307,-0.33808 -0.09727,-0.1125 -0.205848,-0.21657 -0.287933,-0.34111 -0.07947,-0.10551 -0.163118,-0.20449 -0.265623,-0.28945 -0.09474,-0.0916 -0.196329,-0.17613 -0.302426,-0.25432 -0.103193,-0.0814 -0.191958,-0.1753 -0.29259,-0.25929 -0.123632,-0.0664 -0.246041,-0.13615 -0.359005,-0.21979 -0.114009,-0.0799 -0.238324,-0.1431 -0.353687,-0.22094 -0.144034,-0.0775 -0.292013,-0.148 -0.421947,-0.24894 -0.130037,-0.0905 -0.255582,-0.19614 -0.4098,-0.24148 -0.175466,-0.042 -0.345461,-0.1028 -0.516755,-0.15894 -0.188854,-0.0707 -0.384567,-0.12003 -0.574106,-0.18901 -0.209243,-0.0757 -0.425897,-0.12792 -0.634945,-0.2046 -0.18579,-0.0711 -0.372692,-0.12774 -0.568097,-0.16668 -0.182684,-0.0325 -0.365834,-0.0617 -0.54751,-0.0992 -0.181647,-0.0214 -0.358283,-0.0599 -0.534879,-0.1064 -0.190683,-0.0327 -0.376531,-0.0883 -0.569098,-0.11035 -0.185216,-0.0364 -0.368001,-0.0867 -0.54942,-0.13831 -0.16867,-0.0632 -0.321297,-0.1205 -0.506508,-0.0953 -0.213103,-3.7e-4 -0.426204,-0.001 -0.639308,-0.001 -0.197958,5e-4 -0.395943,-0.001 -0.593878,0.003 -0.207777,0.006 -0.417843,0.0126 -0.620112,0.0651 -0.194847,0.0579 -0.382542,0.14308 -0.59142,0.12153 -0.219216,5.6e-4 -0.438433,-0.001 -0.657646,3.5e-4 -0.206677,0.002 -0.413671,0.004 -0.619696,0.0221 -0.174782,0.0191 -0.345266,0.0653 -0.520981,0.0725 -0.181491,0.001 -0.36368,0.002 -0.543944,0.0258 -0.154561,0.0257 -0.298714,0.0793 -0.449429,0.1191 -0.153104,0.0378 -0.30539,0.0756 -0.459335,0.10903 -0.136303,0.0516 -0.266258,0.11806 -0.405844,0.16182 -0.145624,0.0389 -0.283589,0.0982 -0.425421,0.14832 -0.919152,0.45629 1.534628,-0.91039 0.795787,-0.47439 -0.59141,0.3469 -1.02384,0.66234 -1.61204,0.88209 -0.423963,0.2405 -0.903375,0.52719 1.016855,-0.59969 0.02503,-0.0147 -0.05651,0.0158 -0.111284,0.0714 -0.0168,0.017 -0.02994,0.0374 -0.0449,0.056 -0.144319,0.10407 -0.197461,0.0705 -0.285075,0.26453 -0.104614,0.11533 -0.07443,0.28105 -0.142944,0.41724 -0.06138,0.14271 -0.07947,0.31536 -0.09075,0.46858 -0.0016,0.18281 -0.0029,0.36598 -0.02133,0.54805 -0.02003,0.16428 -0.07128,0.32379 -0.073,0.48878 0.0013,0.20302 0.0038,0.40606 0.01196,0.60895 0.01037,0.26803 0.03059,0.53782 0.003,0.8053 0,0 -1.258159,0.62148 -1.258159,0.62148 z"
       inkscape:connector-curvature="0" />
  </g>
</svg>
